<svg width="323" height="141" viewBox="0 0 323 141" fill="none" xmlns="http://www.w3.org/2000/svg">
<path d="M131.87 3C104.739 3 116.42 122 59.5217 122H211C146.565 122 159 3 131.87 3Z" fill="url(#paint0_linear_7_7)"/>
<path d="M211 122C146.565 122 159 3 131.87 3C116.701 3 113.665 40.1984 103.992 73" stroke="black" stroke-width="5" stroke-linecap="round"/>
<path d="M75.3478 3C48.2174 3 59.8986 122 3 122H154.478C90.0435 122 102.478 3 75.3478 3Z" fill="url(#paint1_linear_7_7)" fill-opacity="0.5"/>
<path d="M3 122C59.8986 122 48.2174 3 75.3478 3C90.4394 3 93.2885 39.8216 103.936 72.5" stroke="black" stroke-width="5" stroke-linecap="round"/>
<path d="M231.193 98.5455C231.193 103.915 230.223 108.555 228.284 112.466C226.345 116.377 223.686 119.393 220.305 121.514C216.924 123.635 213.063 124.696 208.721 124.696C204.379 124.696 200.518 123.635 197.137 121.514C193.757 119.393 191.097 116.377 189.158 112.466C187.219 108.555 186.25 103.915 186.25 98.5455C186.25 93.1761 187.219 88.536 189.158 84.625C191.097 80.714 193.757 77.6979 197.137 75.5767C200.518 73.4555 204.379 72.3949 208.721 72.3949C213.063 72.3949 216.924 73.4555 220.305 75.5767C223.686 77.6979 226.345 80.714 228.284 84.625C230.223 88.536 231.193 93.1761 231.193 98.5455ZM225.227 98.5455C225.227 94.1373 224.489 90.4169 223.014 87.3842C221.556 84.3516 219.576 82.0563 217.073 80.4986C214.588 78.9408 211.804 78.1619 208.721 78.1619C205.639 78.1619 202.846 78.9408 200.344 80.4986C197.858 82.0563 195.878 84.3516 194.403 87.3842C192.945 90.4169 192.215 94.1373 192.215 98.5455C192.215 102.954 192.945 106.674 194.403 109.707C195.878 112.739 197.858 115.035 200.344 116.592C202.846 118.15 205.639 118.929 208.721 118.929C211.804 118.929 214.588 118.15 217.073 116.592C219.576 115.035 221.556 112.739 223.014 109.707C224.489 106.674 225.227 102.954 225.227 98.5455ZM276.463 98.5455C276.463 103.915 275.494 108.555 273.555 112.466C271.616 116.377 268.956 119.393 265.575 121.514C262.195 123.635 258.333 124.696 253.991 124.696C249.65 124.696 245.788 123.635 242.408 121.514C239.027 119.393 236.367 116.377 234.428 112.466C232.489 108.555 231.52 103.915 231.52 98.5455C231.52 93.1761 232.489 88.536 234.428 84.625C236.367 80.714 239.027 77.6979 242.408 75.5767C245.788 73.4555 249.65 72.3949 253.991 72.3949C258.333 72.3949 262.195 73.4555 265.575 75.5767C268.956 77.6979 271.616 80.714 273.555 84.625C275.494 88.536 276.463 93.1761 276.463 98.5455ZM270.497 98.5455C270.497 94.1373 269.76 90.4169 268.285 87.3842C266.826 84.3516 264.846 82.0563 262.344 80.4986C259.858 78.9408 257.074 78.1619 253.991 78.1619C250.909 78.1619 248.117 78.9408 245.614 80.4986C243.129 82.0563 241.148 84.3516 239.673 87.3842C238.215 90.4169 237.486 94.1373 237.486 98.5455C237.486 102.954 238.215 106.674 239.673 109.707C241.148 112.739 243.129 115.035 245.614 116.592C248.117 118.15 250.909 118.929 253.991 118.929C257.074 118.929 259.858 118.15 262.344 116.592C264.846 115.035 266.826 112.739 268.285 109.707C269.76 106.674 270.497 102.954 270.497 98.5455ZM294.489 124H278.779V73.0909H295.185C300.124 73.0909 304.349 74.1101 307.863 76.1484C311.376 78.1702 314.069 81.0786 315.941 84.8736C317.814 88.652 318.75 93.1761 318.75 98.446C318.75 103.749 317.806 108.315 315.917 112.143C314.027 115.954 311.276 118.888 307.664 120.942C304.051 122.981 299.66 124 294.489 124ZM284.944 118.531H294.091C298.301 118.531 301.789 117.719 304.557 116.095C307.324 114.471 309.387 112.159 310.746 109.16C312.105 106.16 312.785 102.589 312.785 98.446C312.785 94.3362 312.113 90.7981 310.771 87.8317C309.429 84.8487 307.423 82.5618 304.755 80.9709C302.087 79.3634 298.765 78.5597 294.787 78.5597H284.944V118.531Z" fill="black"/>
<defs>
<linearGradient id="paint0_linear_7_7" x1="135.261" y1="3" x2="135.261" y2="122" gradientUnits="userSpaceOnUse">
<stop offset="0.510417" stop-color="#9F4040"/>
<stop offset="1" stop-color="#9F4040" stop-opacity="0"/>
</linearGradient>
<linearGradient id="paint1_linear_7_7" x1="78.7391" y1="3" x2="78.7391" y2="122" gradientUnits="userSpaceOnUse">
<stop offset="0.463542" stop-color="#1C6C8A"/>
<stop offset="1" stop-color="#1C6C8A" stop-opacity="0"/>
</linearGradient>
</defs>
</svg>

